<svg xmlns="http://www.w3.org/2000/svg" xmlns:xlink="http://www.w3.org/1999/xlink" width="500" zoomAndPan="magnify" viewBox="0 0 375 374.999991" height="500" preserveAspectRatio="xMidYMid meet" version="1.0"><defs><clipPath id="73e99f301f"><path d="M 12.425781 17.496094 L 362.574219 17.496094 L 362.574219 367.644531 L 12.425781 367.644531 Z M 12.425781 17.496094 " clip-rule="nonzero"/></clipPath><clipPath id="35780049ce"><path d="M 187.5 17.496094 C 90.808594 17.496094 12.425781 95.878906 12.425781 192.570312 C 12.425781 289.261719 90.808594 367.644531 187.5 367.644531 C 284.191406 367.644531 362.574219 289.261719 362.574219 192.570312 C 362.574219 95.878906 284.191406 17.496094 187.5 17.496094 " clip-rule="nonzero"/></clipPath><clipPath id="74767f807d"><path d="M 122.085938 161 L 173.738281 161 L 173.738281 253.910156 L 122.085938 253.910156 Z M 122.085938 161 " clip-rule="nonzero"/></clipPath><clipPath id="8104ed2829"><path d="M 122.730469 247.582031 C 142.199219 194.023438 149.460938 178.914062 154.015625 171.359375 C 156.339844 167.484375 158.082031 164.484375 160.117188 162.933594 C 161.375 161.964844 162.632812 161.675781 163.988281 161.578125 C 165.34375 161.480469 166.796875 161.675781 168.058594 162.160156 C 169.21875 162.644531 170.382812 163.613281 171.253906 164.582031 C 172.125 165.644531 172.898438 166.808594 173.09375 168.261719 C 173.382812 170.003906 172.222656 174.265625 172.125 174.265625 C 172.027344 174.265625 172.222656 166.519531 172.511719 166.519531 C 172.707031 166.519531 173.191406 168.066406 173.191406 169.132812 C 173.191406 170.585938 172.898438 173.007812 172.027344 174.460938 C 171.15625 175.914062 169.414062 177.269531 167.863281 177.945312 C 166.3125 178.527344 163.894531 178.527344 162.441406 178.238281 C 161.375 178.042969 160.695312 177.753906 159.921875 177.074219 C 158.757812 176.105469 157.308594 174.070312 156.726562 172.714844 C 156.339844 171.746094 156.144531 171.070312 156.242188 170.003906 C 156.339844 168.550781 156.917969 166.226562 157.984375 164.871094 C 159.050781 163.515625 160.890625 162.351562 162.535156 161.867188 C 164.183594 161.382812 166.410156 161.480469 167.960938 162.160156 C 169.511719 162.835938 171.15625 164.484375 172.027344 165.644531 C 172.609375 166.519531 172.996094 167.195312 173.09375 168.261719 C 173.289062 169.714844 173.09375 172.039062 172.414062 173.589844 C 171.738281 175.136719 170.285156 176.785156 168.734375 177.558594 C 167.1875 178.332031 165.054688 178.722656 163.3125 178.429688 C 161.664062 178.140625 159.632812 177.460938 158.566406 175.914062 C 157.113281 173.878906 156.339844 168.261719 157.308594 165.839844 C 158.082031 164 160.210938 162.546875 161.957031 161.964844 C 163.796875 161.382812 166.410156 161.578125 168.058594 162.160156 C 169.414062 162.644531 170.382812 163.613281 171.253906 164.582031 C 172.125 165.644531 172.898438 166.808594 173.09375 168.261719 C 173.382812 170.003906 173.09375 171.554688 172.125 174.265625 C 169.605469 181.433594 156.53125 200.125 151.109375 210.683594 C 147.136719 218.429688 145.101562 224.628906 141.714844 231.410156 C 138.421875 238.09375 133.675781 247.875 131.15625 251.070312 C 130.1875 252.328125 129.605469 252.910156 128.636719 253.199219 C 127.671875 253.492188 126.3125 253.394531 125.34375 253.007812 C 124.378906 252.621094 123.410156 251.652344 123.019531 250.78125 C 122.632812 249.90625 122.730469 247.582031 122.730469 247.582031 " clip-rule="nonzero"/></clipPath><clipPath id="53718835eb"><path d="M 165 167.226562 L 193 167.226562 L 193 262 L 165 262 Z M 165 167.226562 " clip-rule="nonzero"/></clipPath><clipPath id="399b689d1b"><path d="M 174.160156 171.167969 C 184.230469 203.804688 184.910156 214.554688 186.847656 223.757812 C 188.589844 232.183594 192.753906 241.578125 192.949219 247.875 C 193.046875 251.84375 192.269531 255.523438 191.011719 257.65625 C 190.238281 259.011719 189.171875 259.691406 188.007812 260.269531 C 186.847656 260.851562 185.394531 261.335938 184.136719 261.335938 C 182.777344 261.335938 181.421875 261.144531 180.164062 260.367188 C 178.710938 259.496094 176.097656 256.007812 176.191406 255.914062 C 176.289062 255.816406 181.90625 260.949219 181.8125 261.046875 C 181.714844 261.144531 178.324219 259.109375 177.355469 258.042969 C 176.675781 257.269531 176.386719 256.589844 176.097656 255.621094 C 175.707031 254.265625 175.707031 251.652344 176 250.296875 C 176.191406 249.328125 176.582031 248.648438 177.257812 247.875 C 178.226562 246.808594 180.359375 245.257812 181.714844 244.773438 C 182.683594 244.386719 183.359375 244.386719 184.425781 244.484375 C 185.878906 244.679688 188.105469 245.355469 189.460938 246.421875 C 190.722656 247.488281 191.785156 249.617188 192.269531 250.972656 C 192.5625 251.941406 192.65625 252.714844 192.464844 253.683594 C 192.175781 255.136719 191.109375 257.460938 190.238281 258.625 C 189.558594 259.398438 188.976562 259.882812 188.007812 260.269531 C 186.652344 260.851562 184.425781 261.53125 182.777344 261.238281 C 181.132812 260.949219 179 259.691406 177.9375 258.722656 C 177.160156 258.042969 176.773438 257.460938 176.386719 256.492188 C 175.902344 255.136719 175.417969 252.8125 175.804688 251.167969 C 176.191406 249.519531 177.257812 247.582031 178.519531 246.519531 C 179.777344 245.355469 181.714844 244.289062 183.554688 244.484375 C 186.070312 244.679688 190.816406 248.261719 191.882812 249.8125 C 192.367188 250.488281 192.367188 250.972656 192.367188 251.75 C 192.367188 253.199219 192.078125 256.007812 191.011719 257.558594 C 189.945312 259.109375 188.007812 260.5625 186.167969 261.046875 C 184.328125 261.53125 181.8125 261.238281 180.164062 260.367188 C 178.519531 259.496094 176.484375 257.269531 176.191406 255.914062 C 176 254.945312 177.066406 254.558594 177.160156 253.105469 C 177.453125 248.9375 173.191406 237.125 171.933594 228.40625 C 170.480469 218.625 170.671875 207.003906 169.414062 197.21875 C 168.347656 188.503906 164.957031 176.785156 165.25 172.523438 C 165.347656 170.972656 165.636719 170.292969 166.21875 169.519531 C 166.894531 168.746094 168.058594 168.066406 169.027344 167.875 C 169.996094 167.679688 171.351562 167.96875 172.222656 168.550781 C 173.09375 169.132812 174.160156 171.167969 174.160156 171.167969 " clip-rule="nonzero"/></clipPath><clipPath id="17da95e3b1"><path d="M 143.003906 211.070312 L 170.769531 211.070312 L 170.769531 224 L 143.003906 224 Z M 143.003906 211.070312 " clip-rule="nonzero"/></clipPath><clipPath id="d6e5f4dbbb"><path d="M 148.589844 211.070312 C 162.730469 212.230469 166.992188 212.523438 168.734375 213.878906 C 169.800781 214.75 170.285156 216.007812 170.480469 217.171875 C 170.671875 218.332031 170.480469 219.785156 169.800781 220.851562 C 169.027344 222.109375 166.796875 223.5625 165.34375 223.855469 C 164.183594 224.046875 162.730469 223.660156 161.761719 223.078125 C 160.792969 222.5 159.726562 221.238281 159.339844 220.175781 C 158.953125 219.109375 158.757812 217.65625 159.148438 216.492188 C 159.632812 215.136719 161.375 213.105469 162.925781 212.621094 C 164.472656 212.136719 166.992188 212.714844 168.25 213.492188 C 169.316406 214.167969 169.996094 215.429688 170.285156 216.589844 C 170.574219 217.753906 170.480469 219.207031 170.089844 220.269531 C 169.703125 221.335938 168.640625 222.5 167.671875 223.078125 C 166.703125 223.660156 165.25 223.953125 164.085938 223.855469 C 162.925781 223.757812 161.761719 222.402344 160.695312 222.304688 C 159.824219 222.207031 159.339844 222.886719 158.179688 222.886719 C 155.757812 222.886719 148.976562 221.144531 146.554688 219.980469 C 145.296875 219.398438 144.523438 218.816406 144.039062 217.945312 C 143.554688 217.074219 143.457031 215.621094 143.652344 214.652344 C 143.84375 213.683594 144.621094 212.523438 145.394531 211.941406 C 146.265625 211.359375 148.589844 211.070312 148.589844 211.070312 " clip-rule="nonzero"/></clipPath><clipPath id="58e9368c42"><path d="M 195 160 L 213 160 L 213 264 L 195 264 Z M 195 160 " clip-rule="nonzero"/></clipPath><clipPath id="5348382d0b"><path d="M 202.730469 259.398438 C 196.726562 202.160156 194.59375 176.398438 195.5625 168.550781 C 195.855469 166.035156 196.144531 164.96875 197.113281 163.613281 C 198.082031 162.351562 200.117188 161.191406 201.375 160.707031 C 202.34375 160.320312 203.117188 160.414062 203.988281 160.414062 C 204.863281 160.414062 205.636719 160.511719 206.507812 160.898438 C 207.765625 161.480469 209.605469 162.835938 210.480469 164.191406 C 211.351562 165.550781 211.835938 167.582031 211.640625 169.230469 C 211.449219 170.875 210.382812 172.910156 209.511719 173.976562 C 208.929688 174.75 208.347656 175.136719 207.476562 175.523438 C 206.21875 176.105469 203.988281 176.785156 202.34375 176.492188 C 200.695312 176.203125 198.953125 175.234375 197.792969 174.070312 C 196.628906 172.910156 195.757812 171.070312 195.5625 169.421875 C 195.371094 167.777344 195.757812 165.742188 196.628906 164.386719 C 197.5 162.933594 199.050781 161.675781 200.503906 160.996094 C 202.054688 160.414062 204.28125 160.414062 205.636719 160.609375 C 206.605469 160.804688 207.28125 161.09375 208.058594 161.675781 C 209.125 162.546875 210.574219 163.902344 211.253906 165.742188 C 212.222656 168.261719 211.933594 170.972656 212.222656 175.914062 C 212.902344 188.601562 212.996094 229.859375 212.902344 244.484375 C 212.902344 251.457031 213.191406 257.074219 212.609375 259.785156 C 212.320312 260.851562 212.125 261.335938 211.640625 261.917969 C 211.15625 262.5 210.574219 263.175781 209.800781 263.46875 C 208.832031 263.855469 207.28125 263.953125 206.3125 263.757812 C 205.441406 263.5625 204.765625 263.175781 204.183594 262.59375 C 203.503906 261.820312 202.730469 259.398438 202.730469 259.398438 " clip-rule="nonzero"/></clipPath><clipPath id="f7b1c11faa"><path d="M 201.308594 163.449219 L 238.761719 163.449219 L 238.761719 221.5625 L 201.308594 221.5625 Z M 201.308594 163.449219 " clip-rule="nonzero"/></clipPath><clipPath id="d23044640b"><path d="M 211.640625 167 C 229.367188 200.417969 236.144531 207.003906 237.597656 211.070312 C 238.277344 213.007812 238.277344 214.265625 237.886719 215.71875 C 237.5 217.171875 236.242188 218.722656 235.371094 219.59375 C 234.691406 220.175781 234.207031 220.464844 233.335938 220.660156 C 232.175781 220.949219 229.945312 221.046875 228.6875 220.753906 C 227.816406 220.5625 227.136719 220.175781 226.558594 219.691406 C 225.878906 219.207031 225.394531 218.722656 224.910156 217.945312 C 224.328125 216.882812 223.554688 214.945312 223.652344 213.492188 C 223.746094 212.039062 224.328125 210.390625 225.296875 209.230469 C 226.265625 208.066406 227.71875 206.90625 229.269531 206.710938 C 231.109375 206.421875 234.402344 207.292969 235.855469 208.453125 C 237.113281 209.421875 237.792969 211.070312 238.082031 212.523438 C 238.371094 213.976562 238.277344 215.816406 237.402344 217.171875 C 236.4375 218.816406 233.625 220.660156 231.785156 221.046875 C 230.238281 221.335938 228.785156 221.046875 227.234375 220.078125 C 224.621094 218.429688 221.8125 213.976562 219.195312 209.8125 C 215.804688 204.484375 212.417969 196.832031 209.605469 190.054688 C 206.703125 183.078125 201.761719 172.523438 201.957031 168.550781 C 202.054688 167 202.730469 166.128906 203.410156 165.355469 C 203.988281 164.675781 204.667969 164.289062 205.539062 164.097656 C 206.507812 163.902344 208.15625 163.902344 209.125 164.386719 C 210.1875 164.871094 211.640625 167 211.640625 167 " clip-rule="nonzero"/></clipPath><clipPath id="e129b56768"><path d="M 229.105469 169.457031 L 268.492188 169.457031 L 268.492188 221 L 229.105469 221 Z M 229.105469 169.457031 " clip-rule="nonzero"/></clipPath><clipPath id="7655cb2043"><path d="M 230.429688 213.007812 C 253.773438 175.332031 256 171.652344 258.519531 170.488281 C 260.066406 169.714844 261.714844 169.90625 263.070312 170.292969 C 264.425781 170.683594 265.878906 171.746094 266.75 172.910156 C 267.621094 174.070312 268.105469 175.816406 268.105469 177.269531 C 268.105469 178.722656 267.527344 180.367188 266.652344 181.53125 C 265.78125 182.691406 264.039062 183.660156 262.875 184.046875 C 262.003906 184.339844 261.421875 184.339844 260.550781 184.242188 C 259.390625 184.046875 257.453125 183.5625 256.386719 182.5 C 255.128906 181.140625 253.871094 178.140625 253.964844 176.300781 C 254.0625 174.75 254.835938 173.105469 256 172.136719 C 257.355469 170.875 260.457031 169.90625 262.296875 170.101562 C 263.84375 170.292969 265.296875 171.261719 266.265625 172.328125 C 267.234375 173.394531 268.007812 175.039062 268.105469 176.492188 C 268.203125 177.945312 267.816406 179.691406 267.042969 180.851562 C 266.265625 182.109375 263.457031 183.5625 263.554688 183.757812 C 263.652344 183.855469 264.714844 183.273438 264.910156 183.46875 C 265.78125 184.726562 243.410156 213.878906 238.953125 218.429688 C 237.695312 219.691406 237.308594 220.269531 236.144531 220.5625 C 234.886719 220.851562 232.5625 220.367188 231.496094 219.59375 C 230.527344 218.914062 229.945312 217.558594 229.753906 216.492188 C 229.558594 215.429688 230.429688 213.007812 230.429688 213.007812 " clip-rule="nonzero"/></clipPath><clipPath id="325132d5ed"><path d="M 255 166 L 272 166 L 272 273 L 255 273 Z M 255 166 " clip-rule="nonzero"/></clipPath><clipPath id="f5d63c7a61"><path d="M 268.882812 171.84375 C 268.300781 197.996094 272.078125 254.945312 270.914062 265.113281 C 270.625 267.535156 270.335938 268.40625 269.753906 269.472656 C 269.269531 270.246094 268.882812 270.730469 268.105469 271.214844 C 267.042969 271.894531 265.199219 272.667969 263.75 272.667969 C 262.296875 272.667969 260.457031 271.894531 259.390625 271.214844 C 258.613281 270.730469 258.226562 270.246094 257.839844 269.472656 C 257.257812 268.40625 256.484375 266.566406 256.582031 265.113281 C 256.679688 263.660156 257.355469 262.015625 258.324219 260.851562 C 259.292969 259.785156 260.84375 258.722656 262.199219 258.429688 C 263.652344 258.140625 265.394531 258.335938 266.75 258.914062 C 268.105469 259.496094 269.460938 261.046875 270.140625 262.113281 C 270.625 262.886719 270.722656 263.46875 270.820312 264.339844 C 270.914062 265.597656 270.820312 267.535156 270.140625 268.792969 C 269.460938 270.054688 267.816406 271.410156 266.75 271.992188 C 265.976562 272.378906 265.296875 272.476562 264.523438 272.570312 C 263.75 272.667969 263.070312 272.765625 262.199219 272.476562 C 261.035156 272.085938 259.292969 271.214844 258.324219 270.148438 C 257.355469 269.085938 257.066406 268.308594 256.582031 265.886719 C 254.546875 254.945312 256.679688 181.53125 258.710938 171.554688 C 259.097656 169.617188 259.195312 168.9375 260.066406 168.164062 C 261.035156 167.195312 263.265625 166.519531 264.621094 166.613281 C 265.78125 166.710938 267.042969 167.582031 267.71875 168.453125 C 268.398438 169.328125 268.882812 171.84375 268.882812 171.84375 " clip-rule="nonzero"/></clipPath><clipPath id="1a355960aa"><path d="M 305 161 L 353 161 L 353 221 L 305 221 Z M 305 161 " clip-rule="nonzero"/></clipPath><clipPath id="f4b88692f0"><path d="M 305.878906 213.296875 C 321.957031 185.792969 335.804688 166.808594 341.035156 162.835938 C 342.78125 161.578125 343.75 161.289062 345.105469 161.191406 C 346.460938 161.09375 348.203125 161.382812 349.367188 162.257812 C 350.820312 163.320312 352.367188 166.128906 352.5625 167.96875 C 352.757812 169.421875 352.175781 171.070312 351.207031 172.230469 C 350.042969 173.589844 347.136719 174.945312 345.296875 175.039062 C 343.84375 175.136719 342.199219 174.265625 341.132812 173.394531 C 340.066406 172.523438 339.003906 171.167969 338.808594 169.714844 C 338.519531 167.96875 339.582031 164.675781 340.457031 163.417969 C 340.941406 162.644531 341.519531 162.351562 342.296875 161.964844 C 343.359375 161.480469 345.296875 160.996094 346.652344 161.191406 C 348.011719 161.382812 349.558594 162.257812 350.527344 163.226562 C 351.496094 164.191406 352.175781 166.035156 352.464844 167.195312 C 352.660156 168.066406 352.660156 168.550781 352.367188 169.519531 C 351.789062 171.457031 349.65625 174.460938 347.136719 177.847656 C 342.488281 183.949219 330.578125 194.21875 324.863281 201.867188 C 320.308594 207.875 317.210938 216.492188 314.402344 219.109375 C 313.144531 220.269531 312.269531 220.660156 311.109375 220.753906 C 309.945312 220.851562 308.589844 220.5625 307.621094 219.882812 C 306.652344 219.207031 305.78125 217.945312 305.492188 216.882812 C 305.199219 215.816406 305.878906 213.296875 305.878906 213.296875 " clip-rule="nonzero"/></clipPath><clipPath id="3f737f186d"><path d="M 286.347656 146.757812 L 314.757812 146.757812 L 314.757812 217.785156 L 286.347656 217.785156 Z M 286.347656 146.757812 " clip-rule="nonzero"/></clipPath><clipPath id="b851771a92"><path d="M 304.039062 213.105469 C 297.355469 188.503906 291.933594 176.007812 289.800781 168.066406 C 288.25 162.546875 287.089844 156.445312 286.992188 153.734375 C 286.992188 152.667969 286.992188 152.28125 287.285156 151.503906 C 287.769531 150.441406 288.734375 148.792969 289.898438 148.019531 C 291.0625 147.242188 292.707031 146.757812 294.0625 146.757812 C 295.417969 146.757812 297.164062 147.4375 298.226562 148.308594 C 299.292969 149.179688 300.164062 150.828125 300.550781 151.988281 C 300.84375 152.765625 300.84375 153.34375 300.746094 154.21875 C 300.550781 155.378906 299.972656 157.21875 299.003906 158.1875 C 298.035156 159.253906 296.289062 160.027344 295.128906 160.320312 C 294.355469 160.511719 293.675781 160.609375 292.902344 160.414062 C 291.738281 160.125 289.996094 159.449219 289.027344 158.480469 C 288.058594 157.511719 287.285156 155.863281 287.089844 154.507812 C 286.894531 153.152344 287.285156 151.410156 287.960938 150.148438 C 288.640625 148.988281 290.09375 147.824219 291.15625 147.242188 C 291.933594 146.855469 292.511719 146.757812 293.386719 146.757812 C 294.546875 146.757812 296.484375 147.050781 297.648438 147.824219 C 298.808594 148.601562 299.679688 149.570312 300.359375 151.214844 C 301.617188 154.121094 301.132812 158.964844 302.296875 164.582031 C 304.328125 174.363281 311.691406 195.671875 313.335938 204.097656 C 314.113281 207.96875 314.691406 210.585938 314.304688 212.714844 C 314.113281 214.167969 313.628906 215.332031 312.753906 216.105469 C 311.980469 216.882812 310.429688 217.367188 309.367188 217.460938 C 308.492188 217.558594 307.621094 217.460938 306.847656 216.976562 C 305.78125 216.300781 304.039062 213.105469 304.039062 213.105469 " clip-rule="nonzero"/></clipPath><clipPath id="b67c6b1e3b"><path d="M 40.082031 53.230469 L 323.539062 53.230469 L 323.539062 253 L 40.082031 253 Z M 40.082031 53.230469 " clip-rule="nonzero"/></clipPath><clipPath id="fdafae20f9"><path d="M 314.304688 145.984375 C 308.496094 117.996094 307.914062 115.671875 306.75 113.25 C 305.683594 111.019531 304.328125 109.179688 302.875 107.339844 C 301.519531 105.5 300.550781 104.144531 298.324219 102.207031 C 294.257812 98.527344 283.992188 91.746094 279.148438 88.648438 C 276.339844 86.808594 274.789062 85.839844 272.367188 84.675781 C 269.753906 83.417969 267.042969 82.644531 263.84375 81.578125 C 259.777344 80.222656 255.03125 78.769531 249.800781 77.605469 C 243.3125 76.152344 235.273438 74.605469 227.71875 73.636719 C 219.777344 72.570312 211.351562 71.890625 203.3125 71.601562 C 195.660156 71.3125 189.460938 70.828125 180.648438 71.699219 C 167.960938 72.957031 145.878906 77.800781 134.738281 80.804688 C 128.152344 82.546875 124.667969 83.804688 119.4375 86.128906 C 113.335938 88.839844 105.101562 93.683594 100.453125 96.785156 C 97.546875 98.71875 95.707031 99.6875 93.675781 102.109375 C 91.058594 105.210938 88.058594 110.632812 86.703125 114.410156 C 85.636719 117.21875 85.539062 119.542969 85.152344 122.160156 C 84.765625 124.675781 84.085938 127.292969 84.375 129.808594 C 84.667969 132.328125 85.25 133.976562 86.992188 137.363281 C 91.445312 146.082031 112.851562 172.714844 117.402344 181.140625 C 119.148438 184.242188 119.535156 185.597656 120.210938 187.921875 C 120.890625 190.246094 121.375 192.183594 121.664062 195.089844 C 122.050781 199.253906 121.664062 206.613281 121.179688 210.78125 C 120.890625 213.589844 120.601562 215.136719 119.726562 217.851562 C 118.273438 222.109375 114.886719 229.472656 112.367188 233.441406 C 110.527344 236.25 108.878906 237.996094 106.847656 239.933594 C 104.8125 241.773438 102.972656 243.226562 100.261719 244.871094 C 96.484375 247.195312 90.089844 250.78125 85.828125 251.941406 C 82.828125 252.8125 80.503906 252.8125 77.695312 252.714844 C 74.691406 252.523438 71.59375 252.328125 68.492188 250.875 C 64.617188 249.035156 60.066406 244.386719 56.871094 241.191406 C 54.351562 238.671875 52.898438 236.640625 50.671875 233.636719 C 47.765625 229.664062 42.632812 223.757812 41.375 219.109375 C 40.40625 215.523438 41.082031 211.167969 41.566406 208.84375 C 41.859375 207.582031 41.957031 207.003906 42.632812 206.035156 C 43.503906 204.675781 45.636719 202.835938 46.992188 202.0625 C 47.960938 201.578125 48.929688 201.480469 49.898438 201.382812 C 50.867188 201.289062 51.835938 201.191406 52.898438 201.578125 C 54.449219 202.0625 56.675781 203.320312 57.839844 204.773438 C 59 206.226562 59.871094 208.550781 59.871094 210.390625 C 59.871094 212.230469 59.195312 214.558594 58.128906 216.007812 C 57.0625 217.558594 55.128906 218.914062 53.285156 219.398438 C 51.542969 219.980469 49.121094 219.882812 47.378906 219.207031 C 45.636719 218.527344 43.796875 216.785156 42.828125 215.523438 C 42.148438 214.652344 41.859375 213.878906 41.664062 212.8125 C 41.375 211.261719 41.664062 208.453125 42.148438 206.90625 C 42.535156 205.839844 42.921875 205.160156 43.796875 204.386719 C 44.957031 203.320312 47.378906 201.867188 48.929688 201.480469 C 49.992188 201.191406 50.867188 201.09375 51.929688 201.382812 C 53.480469 201.773438 56 203.03125 57.160156 204.097656 C 58.03125 204.871094 58.515625 205.453125 58.90625 206.519531 C 59.484375 207.96875 60.164062 211.457031 59.679688 212.328125 C 59.484375 212.714844 58.710938 212.425781 58.613281 212.8125 C 58.128906 214.558594 68.105469 227.632812 72.171875 231.023438 C 74.496094 232.957031 76.433594 233.925781 78.757812 234.121094 C 81.082031 234.316406 83.796875 232.863281 86.023438 231.894531 C 88.152344 231.023438 90.1875 230.148438 91.929688 228.601562 C 93.964844 226.855469 95.613281 224.339844 97.160156 221.820312 C 98.808594 219.207031 100.453125 216.105469 101.421875 213.296875 C 102.199219 210.875 102.585938 208.746094 102.777344 206.226562 C 103.070312 203.515625 103.070312 200.417969 102.777344 197.800781 C 102.488281 195.378906 102.488281 193.636719 101.230469 190.925781 C 99 186.082031 91.929688 179.109375 87.28125 172.328125 C 81.957031 164.484375 74.691406 154.023438 71.109375 146.46875 C 68.589844 141.140625 66.75 136.976562 66.070312 132.039062 C 65.394531 127.195312 66.554688 120.996094 67.136719 117.027344 C 67.523438 114.3125 67.71875 112.859375 68.589844 110.246094 C 69.847656 106.46875 72.078125 100.949219 74.691406 96.878906 C 77.210938 92.910156 80.792969 89.132812 83.796875 86.226562 C 86.21875 83.902344 87.863281 82.644531 90.867188 80.609375 C 95.613281 77.511719 104.039062 73.25 110.042969 70.441406 C 115.078125 68.019531 118.179688 66.371094 124.378906 64.433594 C 135.128906 61.140625 158.46875 56.6875 169.414062 55.136719 C 175.613281 54.265625 178.519531 54.070312 184.039062 53.878906 C 191.011719 53.585938 199.824219 53.585938 207.863281 54.070312 C 216.195312 54.554688 225.007812 55.71875 233.335938 56.976562 C 241.375 58.234375 249.703125 59.59375 256.773438 61.433594 C 262.875 62.980469 268.105469 64.726562 273.433594 66.953125 C 278.566406 69.082031 283.117188 71.410156 288.058594 74.507812 C 293.675781 78.089844 300.457031 83.03125 305.199219 87.390625 C 309.074219 90.972656 312.464844 95.039062 314.789062 98.429688 C 316.53125 100.949219 317.597656 103.078125 318.664062 105.597656 C 319.730469 108.210938 320.601562 110.730469 321.277344 113.828125 C 322.246094 117.800781 323.3125 123.902344 323.3125 127.777344 C 323.3125 130.585938 322.34375 132.328125 322.246094 135.039062 C 322.054688 138.527344 323.507812 144.628906 322.828125 147.050781 C 322.441406 148.308594 321.859375 148.988281 321.085938 149.570312 C 320.308594 150.148438 319.050781 150.34375 318.082031 150.246094 C 317.113281 150.148438 315.953125 149.570312 315.371094 148.890625 C 314.691406 148.210938 314.304688 145.984375 314.304688 145.984375 " clip-rule="nonzero"/></clipPath><clipPath id="e9c9b9935c"><path d="M 77 216.203125 L 315.757812 216.203125 L 315.757812 340 L 77 340 Z M 77 216.203125 " clip-rule="nonzero"/></clipPath><clipPath id="8b24298d40"><path d="M 315.371094 220.367188 C 313.722656 235.089844 314.5 240.027344 314.015625 245.453125 C 313.433594 252.039062 312.464844 259.882812 309.945312 267.339844 C 307.042969 275.863281 300.164062 288.261719 296.679688 293.492188 C 295.03125 296.011719 294.546875 296.589844 292.320312 298.625 C 287.671875 302.984375 276.242188 311.796875 268.007812 316.738281 C 260.550781 321.289062 253.09375 324.582031 245.25 327.679688 C 237.210938 330.875 228.6875 333.78125 220.261719 335.621094 C 211.933594 337.460938 202.34375 338.238281 194.984375 338.914062 C 189.363281 339.398438 185.296875 339.882812 180.066406 339.691406 C 174.257812 339.398438 168.25 338.429688 161.859375 337.171875 C 154.691406 335.71875 146.070312 333.296875 139.390625 331.070312 C 133.773438 329.230469 128.25 327.195312 124.085938 325.257812 C 121.082031 323.804688 119.726562 323.128906 116.433594 320.996094 C 109.65625 316.640625 92.511719 304.339844 86.992188 298.914062 C 84.375 296.398438 83.3125 294.75 82.050781 292.523438 C 80.890625 290.390625 79.824219 288.550781 79.4375 285.9375 C 78.855469 282.546875 78.855469 276.15625 80.019531 273.925781 C 80.597656 272.863281 81.375 272.472656 82.441406 271.992188 C 83.890625 271.3125 86.507812 270.632812 88.347656 270.925781 C 90.1875 271.214844 92.320312 272.28125 93.675781 273.636719 C 95.03125 274.992188 96 277.511719 96.289062 279.0625 C 96.582031 280.222656 96.484375 280.996094 96.191406 282.160156 C 95.707031 283.710938 94.351562 286.226562 93.191406 287.390625 C 92.414062 288.164062 91.640625 288.550781 90.574219 288.941406 C 89.027344 289.425781 86.21875 289.714844 84.570312 289.425781 C 83.410156 289.230469 82.632812 288.84375 81.761719 288.164062 C 80.503906 287.195312 78.757812 284.871094 78.082031 283.417969 C 77.597656 282.355469 77.402344 281.578125 77.5 280.417969 C 77.597656 278.769531 78.179688 276.25 79.339844 274.703125 C 80.503906 273.152344 82.441406 271.796875 84.28125 271.214844 C 86.121094 270.632812 88.542969 270.730469 90.285156 271.410156 C 92.027344 272.085938 93.964844 273.925781 94.933594 275.285156 C 95.613281 276.25 95.902344 276.929688 96.097656 278.09375 C 96.289062 279.738281 96.097656 282.546875 95.515625 284.097656 C 95.128906 285.164062 93.964844 286.613281 93.867188 286.613281 C 93.769531 286.613281 95.902344 280.417969 97.160156 280.320312 C 98.421875 280.222656 99.777344 284.96875 101.421875 286.90625 C 102.972656 288.746094 104.230469 289.617188 106.652344 291.554688 C 111.203125 295.332031 122.246094 304.144531 127.378906 307.148438 C 130.089844 308.792969 131.15625 308.988281 134.0625 310.148438 C 139.390625 312.183594 149.269531 315.574219 157.015625 317.511719 C 164.667969 319.449219 172.511719 321.191406 180.066406 321.675781 C 187.332031 322.160156 195.175781 321.09375 201.664062 320.417969 C 207.089844 319.835938 211.253906 319.449219 216.675781 318.1875 C 223.261719 316.640625 231.980469 313.832031 238.371094 311.410156 C 243.699219 309.375 247.671875 307.632812 252.707031 304.921875 C 258.710938 301.722656 266.265625 297.074219 271.59375 293.296875 C 275.855469 290.296875 279.148438 288.359375 282.632812 284.484375 C 286.992188 279.542969 291.542969 271.796875 294.742188 265.015625 C 297.839844 258.429688 299.390625 251.652344 301.425781 244.289062 C 303.652344 236.15625 304.523438 222.207031 307.429688 218.429688 C 308.6875 216.785156 310.429688 216.203125 311.691406 216.203125 C 312.660156 216.203125 313.722656 216.976562 314.304688 217.65625 C 314.886719 218.332031 315.371094 220.367188 315.371094 220.367188 " clip-rule="nonzero"/></clipPath><clipPath id="dc27b9720f"><path d="M 69 271.796875 L 89.476562 271.796875 L 89.476562 313.765625 L 69 313.765625 Z M 69 271.796875 " clip-rule="nonzero"/></clipPath><clipPath id="21201602bb"><path d="M 89.027344 278.382812 C 83.410156 297.460938 83.410156 306.953125 81.472656 310.148438 C 80.597656 311.601562 79.4375 312.183594 78.179688 312.667969 C 76.917969 313.152344 75.273438 313.152344 74.011719 312.765625 C 72.753906 312.378906 71.496094 311.410156 70.71875 310.34375 C 69.945312 309.277344 69.269531 307.632812 69.460938 306.277344 C 69.65625 304.628906 71.011719 302.015625 72.5625 301.046875 C 74.109375 300.078125 77.015625 299.980469 78.664062 300.5625 C 80.019531 301.046875 81.082031 302.207031 81.761719 303.371094 C 82.441406 304.53125 82.730469 306.179688 82.535156 307.535156 C 82.34375 308.792969 81.566406 310.34375 80.597656 311.214844 C 79.632812 312.183594 78.179688 312.863281 76.820312 313.054688 C 75.5625 313.25 73.917969 312.863281 72.753906 312.183594 C 71.59375 311.507812 70.527344 310.441406 70.042969 309.085938 C 69.363281 307.246094 69.847656 304.628906 70.332031 301.820312 C 71.011719 297.851562 72.65625 292.234375 74.402344 287.488281 C 76.242188 282.546875 79.050781 274.894531 81.375 272.863281 C 82.441406 271.894531 83.503906 271.796875 84.570312 271.796875 C 85.636719 271.796875 86.992188 272.378906 87.765625 273.054688 C 88.542969 273.734375 89.121094 275.089844 89.316406 276.058594 C 89.414062 276.832031 89.027344 278.382812 89.027344 278.382812 " clip-rule="nonzero"/></clipPath><clipPath id="0f00647430"><path d="M 83.246094 270.34375 L 123 270.34375 L 123 285 L 83.246094 285 Z M 83.246094 270.34375 " clip-rule="nonzero"/></clipPath><clipPath id="7c0e8aca50"><path d="M 89.511719 270.34375 C 103.070312 272.28125 114.691406 270.828125 118.46875 272.085938 C 120.117188 272.667969 120.988281 273.25 121.664062 274.410156 C 122.441406 275.769531 122.925781 278.671875 122.246094 280.222656 C 121.566406 281.871094 119.339844 283.515625 117.789062 284 C 116.53125 284.386719 115.078125 284 113.917969 283.515625 C 112.753906 283.03125 111.496094 282.0625 111.011719 280.804688 C 110.332031 279.351562 110.238281 276.542969 111.011719 274.992188 C 111.785156 273.539062 114.304688 272.085938 115.855469 271.796875 C 117.210938 271.601562 118.664062 271.992188 119.726562 272.667969 C 120.792969 273.347656 121.761719 274.507812 122.246094 275.671875 C 122.730469 276.832031 122.925781 278.285156 122.441406 279.542969 C 121.859375 281.09375 120.503906 282.933594 118.46875 283.804688 C 115.273438 285.164062 108.6875 283.804688 103.652344 283.226562 C 98.421875 282.644531 90.960938 281.578125 87.667969 280.027344 C 85.925781 279.253906 84.667969 278.382812 84.085938 277.21875 C 83.601562 276.25 83.601562 274.800781 83.890625 273.734375 C 84.183594 272.667969 85.054688 271.601562 86.023438 271.023438 C 86.992188 270.441406 89.511719 270.34375 89.511719 270.34375 " clip-rule="nonzero"/></clipPath></defs><g clip-path="url(#73e99f301f)"><g clip-path="url(#35780049ce)"><path fill="#e8fdff" d="M 12.425781 17.496094 L 362.574219 17.496094 L 362.574219 367.644531 L 12.425781 367.644531 Z M 12.425781 17.496094 " fill-opacity="1" fill-rule="nonzero"/></g></g><g clip-path="url(#74767f807d)"><g clip-path="url(#8104ed2829)"><path fill="#6ed4d4" d="M 118.855469 157.703125 L 176.96875 157.703125 L 176.96875 257.140625 L 118.855469 257.140625 Z M 118.855469 157.703125 " fill-opacity="1" fill-rule="nonzero"/></g></g><g clip-path="url(#53718835eb)"><g clip-path="url(#399b689d1b)"><path fill="#6ed4d4" d="M 161.375 164 L 196.886719 164 L 196.886719 265.371094 L 161.375 265.371094 Z M 161.375 164 " fill-opacity="1" fill-rule="nonzero"/></g></g><g clip-path="url(#17da95e3b1)"><g clip-path="url(#d6e5f4dbbb)"><path fill="#6ed4d4" d="M 139.777344 207.195312 L 174.644531 207.195312 L 174.644531 227.859375 L 139.777344 227.859375 Z M 139.777344 207.195312 " fill-opacity="1" fill-rule="nonzero"/></g></g><g clip-path="url(#58e9368c42)"><g clip-path="url(#5348382d0b)"><path fill="#6ed4d4" d="M 191.691406 156.542969 L 216.871094 156.542969 L 216.871094 267.601562 L 191.691406 267.601562 Z M 191.691406 156.542969 " fill-opacity="1" fill-rule="nonzero"/></g></g><g clip-path="url(#f7b1c11faa)"><g clip-path="url(#d23044640b)"><path fill="#6ed4d4" d="M 198.082031 160.222656 L 241.988281 160.222656 L 241.988281 224.789062 L 198.082031 224.789062 Z M 198.082031 160.222656 " fill-opacity="1" fill-rule="nonzero"/></g></g><g clip-path="url(#e129b56768)"><g clip-path="url(#7655cb2043)"><path fill="#6ed4d4" d="M 225.878906 166.226562 L 271.722656 166.226562 L 271.722656 224.339844 L 225.878906 224.339844 Z M 225.878906 166.226562 " fill-opacity="1" fill-rule="nonzero"/></g></g><g clip-path="url(#325132d5ed)"><g clip-path="url(#f5d63c7a61)"><path fill="#6ed4d4" d="M 252.707031 162.742188 L 274.660156 162.742188 L 274.660156 276.382812 L 252.707031 276.382812 Z M 252.707031 162.742188 " fill-opacity="1" fill-rule="nonzero"/></g></g><g clip-path="url(#1a355960aa)"><g clip-path="url(#f4b88692f0)"><path fill="#6ed4d4" d="M 301.617188 157.316406 L 356.5 157.316406 L 356.5 224.46875 L 301.617188 224.46875 Z M 301.617188 157.316406 " fill-opacity="1" fill-rule="nonzero"/></g></g><g clip-path="url(#3f737f186d)"><g clip-path="url(#b851771a92)"><path fill="#6ed4d4" d="M 283.117188 142.886719 L 317.984375 142.886719 L 317.984375 221.660156 L 283.117188 221.660156 Z M 283.117188 142.886719 " fill-opacity="1" fill-rule="nonzero"/></g></g><g clip-path="url(#b67c6b1e3b)"><g clip-path="url(#fdafae20f9)"><path fill="#6ed4d4" d="M 37.5 50.003906 L 327.414062 50.003906 L 327.414062 256.625 L 37.5 256.625 Z M 37.5 50.003906 " fill-opacity="1" fill-rule="nonzero"/></g></g><g clip-path="url(#e9c9b9935c)"><g clip-path="url(#8b24298d40)"><path fill="#6ed4d4" d="M 73.625 212.328125 L 318.988281 212.328125 L 318.988281 343.402344 L 73.625 343.402344 Z M 73.625 212.328125 " fill-opacity="1" fill-rule="nonzero"/></g></g><g clip-path="url(#dc27b9720f)"><g clip-path="url(#21201602bb)"><path fill="#6ed4d4" d="M 65.585938 267.921875 L 93.351562 267.921875 L 93.351562 316.996094 L 65.585938 316.996094 Z M 65.585938 267.921875 " fill-opacity="1" fill-rule="nonzero"/></g></g><g clip-path="url(#0f00647430)"><g clip-path="url(#7c0e8aca50)"><path fill="#6ed4d4" d="M 80.019531 266.46875 L 126.507812 266.46875 L 126.507812 287.777344 L 80.019531 287.777344 Z M 80.019531 266.46875 " fill-opacity="1" fill-rule="nonzero"/></g></g></svg>